<svg width="800" height="800" viewBox="0 0 800 800" fill="none" xmlns="http://www.w3.org/2000/svg">
<g clip-path="url(#clip0_2025_6)">
<path fill-rule="evenodd" clip-rule="evenodd" d="M200 100C255.228 100 300 144.772 300 200C300 243.541 272.173 280.582 233.333 294.31V366.667H505.69C519.417 327.827 556.46 300 600 300C655.23 300 700 344.77 700 400C700 455.23 655.23 500 600 500C556.46 500 519.417 472.173 505.69 433.333H233.333V566.667C233.333 585.077 248.257 600 266.667 600H505.69C519.417 561.16 556.46 533.333 600 533.333C655.23 533.333 700 578.103 700 633.333C700 688.563 655.23 733.333 600 733.333C556.46 733.333 519.417 705.507 505.69 666.667H266.667C211.438 666.667 166.667 621.897 166.667 566.667V294.31C127.827 280.582 100 243.541 100 200C100 144.772 144.772 100 200 100ZM600 600C581.59 600 566.667 614.923 566.667 633.333C566.667 651.743 581.59 666.667 600 666.667C618.41 666.667 633.333 651.743 633.333 633.333C633.333 614.923 618.41 600 600 600ZM600 366.667C581.59 366.667 566.667 381.59 566.667 400C566.667 418.41 581.59 433.333 600 433.333C618.41 433.333 633.333 418.41 633.333 400C633.333 381.59 618.41 366.667 600 366.667ZM200 166.667C181.591 166.667 166.667 181.591 166.667 200C166.667 218.409 181.591 233.333 200 233.333C218.409 233.333 233.333 218.409 233.333 200C233.333 181.591 218.409 166.667 200 166.667Z" fill="white"/>
</g>
<defs>
<clipPath id="clip0_2025_6">
<rect width="800" height="800" fill="white"/>
</clipPath>
</defs>
</svg>
