<svg width="1036" height="1036" viewBox="0 0 1036 1036" fill="none" xmlns="http://www.w3.org/2000/svg">
<path fill-rule="evenodd" clip-rule="evenodd" d="M844.25 409.25H626.75V191.75C626.75 131.666 578.057 83 518 83C457.943 83 409.25 131.666 409.25 191.75V409.25H191.75C131.693 409.25 83 457.916 83 518C83 578.084 131.693 626.75 191.75 626.75H409.25V844.25C409.25 904.334 457.943 953 518 953C578.057 953 626.75 904.334 626.75 844.25V626.75H844.25C904.307 626.75 953 578.084 953 518C953 457.916 904.307 409.25 844.25 409.25Z" fill="white"/>
</svg>
