<svg width="834" height="834" viewBox="0 0 834 834" fill="none" xmlns="http://www.w3.org/2000/svg">
<path d="M440.456 364.875C393.544 364.875 354.45 401.363 354.45 445.669V463.912C354.45 492.581 338.812 513.431 312.75 521.25H354.45H435.244C482.156 521.25 523.856 484.762 521.25 440.456C521.25 398.756 484.762 364.875 440.456 364.875Z" stroke="white" stroke-width="37" stroke-miterlimit="10" stroke-linecap="round" stroke-linejoin="round"/>
<path d="M529.069 299.719C492.581 291.9 456.094 286.688 417 286.688C229.35 286.688 78.1875 390.938 78.1875 521.25C78.1875 547.312 83.4 573.375 96.4313 596.831C122.494 648.956 190.256 664.594 237.169 630.713C299.719 586.406 388.331 630.713 388.331 708.9V755.812C398.756 755.812 406.575 755.812 417 755.812C604.65 755.812 755.812 651.562 755.812 521.25C755.812 463.912 727.144 411.788 680.231 372.694" stroke="white" stroke-width="37" stroke-miterlimit="10" stroke-linecap="round" stroke-linejoin="round"/>
<path d="M453.487 367.481L708.9 138.131C719.325 127.706 737.569 127.706 747.994 138.131C758.419 148.556 758.419 164.194 747.994 174.619L521.25 417" stroke="white" stroke-width="37" stroke-miterlimit="10" stroke-linecap="round" stroke-linejoin="round"/>
</svg>
