<svg width="800" height="800" viewBox="0 0 800 800" fill="none" xmlns="http://www.w3.org/2000/svg">
<g clip-path="url(#clip0_193_25)">
<mask id="mask0_193_25" style="mask-type:luminance" maskUnits="userSpaceOnUse" x="0" y="0" width="800" height="800">
<path d="M800 0H0V800H800V0Z" fill="white"/>
</mask>
<g mask="url(#mask0_193_25)">
<path fill-rule="evenodd" clip-rule="evenodd" d="M66.6667 33.3333C66.6667 14.9238 51.7427 0 33.3333 0C14.9238 0 0 14.9238 0 33.3333V766.667C0 785.077 14.9238 800 33.3333 800C51.7427 800 66.6667 785.077 66.6667 766.667V733.333H733.333V766.667C733.333 785.077 748.257 800 766.667 800C785.077 800 800 785.077 800 766.667V33.3333C800 14.9238 785.077 0 766.667 0C748.257 0 733.333 14.9238 733.333 33.3333V266.667H666.667V100C666.667 81.5907 651.743 66.6667 633.333 66.6667H366.667C348.257 66.6667 333.333 81.5907 333.333 100V133.333H166.667C148.257 133.333 133.333 148.257 133.333 166.667V266.667H66.6667V33.3333ZM333.333 200H200V266.667H333.333V200ZM66.6667 333.333V666.667H133.333V433.333C133.333 414.923 148.257 400 166.667 400H433.333C451.743 400 466.667 414.923 466.667 433.333V466.667H633.333C651.743 466.667 666.667 481.59 666.667 500V666.667H733.333V333.333H66.6667ZM600 266.667V133.333H400V266.667H600ZM400 666.667H200V466.667H400V666.667ZM466.667 666.667V533.333H600V666.667H466.667Z" fill="#CCCCCC"/>
</g>
</g>
<defs>
<clipPath id="clip0_193_25">
<rect width="800" height="800" fill="white"/>
</clipPath>
</defs>
</svg>
