<svg width="668" height="668" viewBox="0 0 668 668" fill="none" xmlns="http://www.w3.org/2000/svg">
<path d="M467.334 0.666748H200.667C67.3337 0.666748 0.666992 67.3334 0.666992 200.667V634C0.666992 652.333 15.667 667.333 34.0003 667.333H467.334C600.667 667.333 667.334 600.667 667.334 467.333V200.667C667.334 67.3334 600.667 0.666748 467.334 0.666748ZM400.667 442.333H167.334C153.667 442.333 142.334 431 142.334 417.333C142.334 403.667 153.667 392.333 167.334 392.333H400.667C414.334 392.333 425.667 403.667 425.667 417.333C425.667 431 414.334 442.333 400.667 442.333ZM500.667 275.667H167.334C153.667 275.667 142.334 264.333 142.334 250.667C142.334 237 153.667 225.667 167.334 225.667H500.667C514.334 225.667 525.667 237 525.667 250.667C525.667 264.333 514.334 275.667 500.667 275.667Z" fill="#CCCCCC"/>
</svg>
