<svg width="612" height="667" viewBox="0 0 612 667" fill="none" xmlns="http://www.w3.org/2000/svg">
<path d="M537.001 113.917L364.667 14.25C331.667 -4.75 280.001 -4.75 247.001 14.25L73 114.583C4 161.25 0 168.25 0 242.583V423.583C0 497.916 4 505.25 74.3333 552.583L246.667 652.25C263.334 661.916 284.667 666.583 305.667 666.583C326.667 666.583 348.001 661.916 364.334 652.25L538.334 551.916C607.334 505.25 611.334 498.25 611.334 423.916V242.583C611.334 168.25 607.334 161.25 537.001 113.917ZM305.667 441.583C246.001 441.583 197.333 392.916 197.333 333.25C197.333 273.583 246.001 224.917 305.667 224.917C365.334 224.917 414.001 273.583 414.001 333.25C414.001 392.916 365.334 441.583 305.667 441.583Z" fill="#CCCCCC" fill-opacity="0.8"/>
</svg>
