<svg width="800" height="800" viewBox="0 0 800 800" fill="none" xmlns="http://www.w3.org/2000/svg">
<path d="M400 0C179.086 0 0 179.086 0 400C0 620.914 179.086 800 400 800C620.914 800 800 620.914 800 400C800 179.086 620.914 0 400 0ZM653.555 228.125H580.638C572.255 192.948 561.381 160.605 548.47 132.009C573.136 145.722 596.047 162.942 616.552 183.448C630.411 197.308 642.761 212.272 653.555 228.125ZM706.25 400C706.25 426.731 702.827 452.933 696.228 478.125H596.175C598.677 452.856 600 426.739 600 400C600 373.261 598.677 347.144 596.175 321.875H696.228C702.827 347.067 706.25 373.269 706.25 400ZM400 706.25C391.875 706.25 367.113 690.28 342.431 640.917C332.208 620.469 323.434 597.177 316.256 571.875H483.742C476.564 597.175 467.792 620.469 457.567 640.917C432.887 690.28 408.125 706.25 400 706.25ZM298.145 478.125C295.259 452.739 293.75 426.517 293.75 400C293.75 373.483 295.259 347.261 298.145 321.875H501.855C504.741 347.261 506.25 373.483 506.25 400C506.25 426.517 504.741 452.739 501.855 478.125H298.145ZM93.75 400C93.75 373.269 97.1734 347.067 103.772 321.875H203.825C201.323 347.144 200 373.261 200 400C200 426.739 201.323 452.856 203.825 478.125H103.772C97.1734 452.933 93.75 426.731 93.75 400ZM400 93.75C408.125 93.75 432.887 109.72 457.569 159.083C467.792 179.531 476.566 202.823 483.744 228.125H316.256C323.434 202.825 332.206 179.531 342.431 159.083C367.113 109.72 391.875 93.75 400 93.75ZM251.53 132.009C238.617 160.605 227.745 192.947 219.362 228.125H146.445C157.241 212.272 169.589 197.308 183.448 183.448C203.955 162.942 226.864 145.722 251.53 132.009ZM146.445 571.875H219.362C227.745 607.052 238.619 639.395 251.53 667.991C226.864 654.278 203.953 637.058 183.448 616.552C169.589 602.692 157.239 587.728 146.445 571.875ZM548.47 667.991C561.383 639.395 572.255 607.053 580.638 571.875H653.555C642.759 587.728 630.411 602.692 616.552 616.552C596.045 637.058 573.136 654.278 548.47 667.991Z" fill="#CCCCCC"/>
</svg>
