<svg width="203" height="234" viewBox="0 0 203 234" fill="none" xmlns="http://www.w3.org/2000/svg">
<path d="M77.1458 0.571C79.1778 0.4328 81.2088 0.399801 83.2338 0.664701C90.4148 1.6044 95.3578 5.804 99.5938 11.3347C97.2098 12.3541 94.7229 13.3842 92.4879 14.6963C92.0029 14.0477 91.5139 13.3837 90.9619 12.7896C88.3099 9.9335 84.1509 8.1048 80.2639 8.0308C75.7439 7.9446 71.8938 9.6001 68.6888 12.7302C68.3048 13.1742 67.9315 13.6269 67.5688 14.0883C64.5448 17.9721 63.9308 22.0291 64.5498 26.7841C62.0558 27.5324 59.6058 28.7723 57.2028 29.7885C57.0588 29.1222 56.9302 28.4529 56.8168 27.7806C56.7562 27.3925 56.7052 27.0032 56.6638 26.6127C56.6225 26.2222 56.5905 25.8308 56.5678 25.4387C56.5458 25.0466 56.5335 24.6541 56.5308 24.2614C56.5282 23.8687 56.5348 23.4761 56.5508 23.0837C56.5675 22.6913 56.5935 22.2996 56.6288 21.9085C56.6648 21.5174 56.7102 21.1273 56.7648 20.7384C56.8202 20.3495 56.8845 19.9622 56.9578 19.5765C57.0318 19.1908 57.1155 18.8072 57.2088 18.4255C57.3015 18.0439 57.4035 17.6648 57.5148 17.2882C57.6262 16.9116 57.7468 16.538 57.8768 16.1673C58.0068 15.7966 58.1458 15.4294 58.2938 15.0656C58.4412 14.7017 58.5978 14.3418 58.7638 13.9857C58.9292 13.6296 59.1035 13.2777 59.2868 12.9302C59.4695 12.5827 59.6608 12.2398 59.8608 11.9017C60.0602 11.5636 60.2682 11.2305 60.4848 10.9026C60.7008 10.5747 60.9248 10.2524 61.1568 9.9355C65.0528 4.5309 70.7078 1.6209 77.1458 0.571Z" fill="url(#paint0_linear_177_237)"/>
<path d="M101.02 22.0386L101.158 22.1895C100.394 23.8968 86.65 37.095 84.583 39.1755L41.7242 82.3681C41.1405 79.6721 41.5703 74.8211 41.5718 71.9341L41.5428 48.1569L84.154 29.4785C89.777 26.9892 95.443 24.6367 101.02 22.0386Z" fill="url(#paint1_linear_177_237)"/>
<path d="M143.535 32.3931C145.318 33.7256 156.997 54.1998 159.208 57.9008L188.813 107.189C193.382 114.747 197.696 122.546 202.544 129.923C196.394 133.445 190.445 137.306 184.369 140.955C174.874 146.854 165.075 152.422 155.827 158.698C152.062 116.564 147.964 74.4622 143.535 32.3931Z" fill="url(#paint2_linear_177_237)"/>
<path d="M106.872 68.1929C107.26 68.8379 106.891 70.0249 106.736 70.7579L91.1788 150.857C88.1978 166.033 85.4538 181.238 82.3468 196.392C78.4428 196.646 74.0958 197.994 70.2258 198.787C60.7918 200.722 51.3328 202.805 41.8368 204.396L41.6083 204.113C41.4137 200.243 41.6105 196.331 41.5945 192.454C41.5787 188.63 40.9768 178.04 41.8819 174.87C43.0204 170.881 46.6358 166.253 48.8818 162.643L57.4238 148.816L90.2468 95.5019C95.8028 86.4409 101.713 77.4829 106.872 68.1929Z" fill="url(#paint3_linear_177_237)"/>
<path d="M68.5802 71.3677L129.5 10L85.7562 81.3187C85.7562 81.3187 80.8332 89.4247 78.3772 93.3897L65.3762 114.426L35.2787 163.357C29.9377 172.038 24.3866 180.636 19.2135 189.416C17.1199 183.131 14.4964 177.024 12.0903 170.855L0.250977 140.155C9.91924 130.537 19.5388 120.871 29.1097 111.157L68.5802 71.3677Z" fill="url(#paint4_linear_177_237)"/>
<path d="M122.39 49.836L130 10.5L134.11 52.0779C134.11 52.0779 134.95 60.4942 135.234 63.4322L138.007 91.2172L146.715 181.98C147.865 193.718 148.634 205.581 150.088 217.277C147.221 217.735 144.321 218.639 141.501 219.343C135.956 220.702 130.428 222.129 124.917 223.625C116.534 225.884 108.126 228.041 99.6909 230.097C95.3829 231.192 91.1179 232.44 86.7949 233.477C88.4349 226.735 89.3669 219.635 90.6779 212.805L98.2149 174.021L113.28 96.6562C115.41 84.8829 117.687 73.1382 120.11 61.4222C120.901 57.5912 122.39 49.836 122.39 49.836Z" fill="url(#paint5_linear_177_237)"/>
<defs>
<linearGradient id="paint0_linear_177_237" x1="66.5297" y1="33.6284" x2="85.6281" y2="0.676427" gradientUnits="userSpaceOnUse">
<stop stop-color="#D71252"/>
<stop offset="1" stop-color="#133E87"/>
</linearGradient>
<linearGradient id="paint1_linear_177_237" x1="42.9097" y1="80.5633" x2="83.9227" y2="14.3201" gradientUnits="userSpaceOnUse">
<stop stop-color="#D71252"/>
<stop offset="1" stop-color="#133E87"/>
</linearGradient>
<linearGradient id="paint2_linear_177_237" x1="143.763" y1="151.914" x2="185.629" y2="51.9798" gradientUnits="userSpaceOnUse">
<stop stop-color="#D71252"/>
<stop offset="1" stop-color="#133E87"/>
</linearGradient>
<linearGradient id="paint3_linear_177_237" x1="51.0642" y1="207.863" x2="114.497" y2="76.0807" gradientUnits="userSpaceOnUse">
<stop stop-color="#D81652"/>
<stop offset="1" stop-color="#133E87"/>
</linearGradient>
<linearGradient id="paint4_linear_177_237" x1="6.40781" y1="181.055" x2="64.7998" y2="69.0497" gradientUnits="userSpaceOnUse">
<stop stop-color="#D91A52"/>
<stop offset="1" stop-color="#133E87"/>
</linearGradient>
<linearGradient id="paint5_linear_177_237" x1="97.0742" y1="236.119" x2="163.175" y2="61.2216" gradientUnits="userSpaceOnUse">
<stop stop-color="#D71252"/>
<stop offset="1" stop-color="#133E87"/>
</linearGradient>
</defs>
</svg>
