<svg width="120" height="120" viewBox="0 0 120 120" fill="none" xmlns="http://www.w3.org/2000/svg">
<path d="M85.716 64.2852L64.2871 76.0707V99.6418L85.716 111.427L107.145 99.643V76.0707L85.716 64.2852ZM98.5738 94.5746L85.7172 101.646L72.8605 94.5746V81.1391L85.7172 74.068L98.5738 81.1391V94.5746Z" fill="#69A744"/>
<path d="M79.2863 87.857C79.2863 91.4078 82.1644 94.2859 85.7152 94.2859C89.266 94.2859 92.1441 91.4078 92.1441 87.857C92.1441 84.3063 89.266 81.4281 85.7152 81.4281C82.1644 81.4281 79.2863 84.3074 79.2863 87.857ZM87.8586 87.857C87.8586 89.0383 86.8977 90.0004 85.7152 90.0004C84.5328 90.0004 83.5719 89.0395 83.5719 87.857C83.5719 86.6746 84.5328 85.7137 85.7152 85.7137C86.8977 85.7137 87.8586 86.6758 87.8586 87.857ZM25.7246 55.709H51.4391V64.2801H25.7246V55.709Z" fill="#69A744"/>
<path d="M21.4008 42.9225H90.0281V59.6697H98.5992V17.065C98.5992 12.3822 94.7906 8.57129 90.1078 8.57129H86.9016C83.4797 8.57129 80.4504 10.5318 79.1812 13.5623C78.5121 15.1572 75.9187 15.1607 75.2496 13.5623C73.977 10.5295 70.9477 8.57129 67.5281 8.57129H65.4C61.9781 8.57129 58.9488 10.5318 57.6809 13.5623C57.0117 15.1572 54.4184 15.1607 53.7492 13.5623C52.4766 10.5295 49.4473 8.57129 46.0277 8.57129H43.9852C40.5633 8.57129 37.534 10.5318 36.2648 13.5623C35.5957 15.1572 33.0023 15.1607 32.3332 13.5623C31.0594 10.5307 28.0289 8.57129 24.6094 8.57129H21.3785C16.6957 8.57129 12.8848 12.3822 12.8848 17.065V111.415H59.9016V102.844H21.4523L21.4008 42.9225ZM24.4254 16.8752C26.0977 20.8678 29.9707 23.4482 34.2961 23.4482C38.6191 23.4482 42.4934 20.8701 43.9828 17.1436L45.8414 16.8752C47.5137 20.8678 51.3867 23.4482 55.7121 23.4482C60.0352 23.4482 63.9094 20.8701 65.3988 17.1436L67.343 16.8752C69.0152 20.8678 72.8883 23.4482 77.2137 23.4482C81.5367 23.4482 85.4109 20.8701 86.9004 17.1436L90.0269 17.0662V34.3514H21.3938L21.3797 17.1436L24.4254 16.8752Z" fill="#69A744"/>
</svg>
