<svg width="665" height="665" viewBox="0 0 665 665" fill="none" xmlns="http://www.w3.org/2000/svg">
<path fill-rule="evenodd" clip-rule="evenodd" d="M665 332.5C665 516.133 516.133 665 332.5 665C148.865 665 0 516.133 0 332.5C0 148.865 148.865 0 332.5 0C516.133 0 665 148.865 665 332.5ZM466.508 231.742C476.246 241.48 476.246 257.27 466.508 267.007L300.257 433.257C290.519 442.996 274.731 442.996 264.992 433.257L198.492 366.757C188.753 357.019 188.753 341.231 198.492 331.493C208.23 321.754 224.02 321.754 233.758 331.493L282.625 380.357L356.932 306.05L431.243 231.742C440.981 222.003 456.769 222.003 466.508 231.742Z" fill="#343166"/>
</svg>
