<svg width="800" height="800" viewBox="0 0 800 800" fill="none" xmlns="http://www.w3.org/2000/svg">
<path fill-rule="evenodd" clip-rule="evenodd" d="M745 474.591L681.997 476.077L683.944 645.771H545.509L539.781 474.991L601.811 474.591L574.49 335.065L473.513 282.099L522.77 258.159C528.154 232.048 550.492 220.907 550.492 204.623C550.492 181.768 512.919 181.768 512.919 212.222L488.863 206.508C491.612 174.169 503.068 154 541.385 154C572.428 154 587.206 171.141 587.206 203.251C587.206 229.591 567.617 238.847 564.295 258.331L717.68 334.95L745 474.591ZM393.786 646H122.013V482.59L55 484.19L80.7741 333.865L236.392 258.159C241.776 232.048 264.113 220.907 264.113 204.623C264.113 181.768 226.541 181.768 226.541 212.222L202.485 206.508C205.234 174.169 216.689 154 255.007 154C286.05 154 300.827 171.141 300.827 203.251C300.827 229.591 281.239 238.847 277.917 258.331L431.301 335.065L458.622 474.591L394.645 476.077L393.786 646ZM379.467 258.559C384.736 232.162 407.303 220.964 407.303 204.623C407.303 181.768 369.73 181.768 369.73 212.222L345.674 206.508C348.423 174.169 359.878 154 398.196 154C429.239 154 444.016 171.141 444.016 203.251C444.016 231.305 421.851 239.99 420.476 262.216L379.467 258.559Z" fill="white"/>
</svg>
