<svg width="800" height="800" viewBox="0 0 800 800" fill="none" xmlns="http://www.w3.org/2000/svg">
<g clip-path="url(#clip0_342_2)">
<path fill-rule="evenodd" clip-rule="evenodd" d="M120 552.38C97.9198 552.38 80.0002 535.314 80.0002 514.285V285.714C80.0002 264.685 97.9198 247.618 120 247.618C142.08 247.618 160 230.552 160 209.523C160 188.494 142.08 171.428 120 171.428H80.0002C35.8002 171.428 0 205.523 0 247.618V552.38C0 594.475 35.8002 628.571 80.0002 628.571H120C142.08 628.571 160 611.504 160 590.475C160 569.447 142.08 552.38 120 552.38ZM720 171.428H440C417.92 171.428 400 188.494 400 209.523C400 230.552 417.92 247.618 440 247.618H680C702.08 247.618 720 264.685 720 285.714V514.285C720 535.314 702.08 552.38 680 552.38H440C417.92 552.38 400 569.447 400 590.475C400 611.504 417.92 628.571 440 628.571H720C764.2 628.571 800 594.475 800 552.38V247.618C800 205.523 764.2 171.428 720 171.428ZM400 742.856C400 763.885 382.08 780.952 360 780.952H200C177.92 780.952 160 763.885 160 742.856C160 721.828 177.92 704.761 200 704.761H240V95.2374H200C177.92 95.2374 160 78.1707 160 57.1421C160 36.1135 177.92 19.0469 200 19.0469H360C382.08 19.0469 400 36.1135 400 57.1421C400 78.1707 382.08 95.2374 360 95.2374H320V704.761H360C382.08 704.761 400 721.828 400 742.856Z" fill="#FF4D4D"/>
</g>
<defs>
<clipPath id="clip0_342_2">
<rect width="800" height="800" fill="white"/>
</clipPath>
</defs>
</svg>
