<svg width="800" height="800" viewBox="0 0 800 800" fill="none" xmlns="http://www.w3.org/2000/svg">
<path fill-rule="evenodd" clip-rule="evenodd" d="M694.924 62.6233C655.871 23.5709 592.554 23.5708 553.501 62.6233L81.582 534.544C67.622 548.504 58.1063 566.284 54.2347 585.641L34.6657 683.487C25.3361 730.134 66.464 771.264 113.112 761.934L210.957 742.364C230.316 738.494 248.096 728.977 262.056 715.017L733.974 243.097C773.027 204.045 773.027 140.728 733.974 101.676L694.924 62.6233ZM600.641 109.764C613.661 96.7463 634.764 96.7463 647.784 109.764L686.834 148.816C699.854 161.834 699.854 182.939 686.834 195.957L597.781 285.01L511.591 198.817L600.641 109.764ZM464.447 245.957L128.722 581.684C124.069 586.337 120.897 592.264 119.607 598.717L100.038 696.561L197.882 676.991C204.335 675.701 210.262 672.531 214.915 667.877L550.641 332.15L464.447 245.957Z" fill="white"/>
</svg>
