<svg width="800" height="800" viewBox="0 0 800 800" fill="none" xmlns="http://www.w3.org/2000/svg">
<path d="M533.5 445C578.5 405 601 347.5 598.5 287.5C598.5 285 598.5 280 598.5 277.5C596 257.5 593.5 235 586 215L538.5 95C536 85 526 80 516 80H283.5C273.5 80 263.5 87.5 261 95L216 215C206 237.5 201 262.5 201 285C201 287.5 201 290 201 292.5C201 350 223.5 405 266 442.5C298.5 472.5 336 487.5 373.5 492.5V595C373.5 645 341 687.5 293.5 700C281 702.5 273.5 715 273.5 727.5C276 740 286 750 298.5 750H498.5C501 750 503.5 750 508.5 747.5C508.5 747.5 511 747.5 511 745C513.5 745 513.5 742.5 516 742.5L518.5 740C518.5 737.5 521 737.5 521 735C521 735 521 732.5 523.5 732.5C523.5 732.5 523.5 732.5 523.5 730V727.5V725C523.5 725 523.5 725 523.5 722.5C523.5 720 523.5 720 523.5 717.5C523.5 715 523.5 715 521 712.5C521 710 518.5 710 518.5 707.5C518.5 705 516 705 516 705C516 705 513.5 702.5 511 702.5C508.5 702.5 508.5 700 506 700C506 700 506 700 503.5 700C456 687.5 423.5 645 423.5 595V492.5C466 490 503.5 472.5 533.5 445ZM303.5 127.5H501L541 232.5C543.5 242.5 546 252.5 548.5 262.5C493.5 270 436 275 376 275C333.5 275 293.5 272.5 253.5 267.5C256 255 258.5 245 261 232.5L303.5 127.5Z" fill="white"/>
</svg>
