<svg width="616" height="740" viewBox="0 0 616 740" fill="none" xmlns="http://www.w3.org/2000/svg">
<path d="M468 197.692H598.462C600.742 197.756 603.011 197.354 605.13 196.51C607.249 195.667 609.174 194.4 610.787 192.787C612.4 191.174 613.667 189.249 614.51 187.13C615.354 185.011 615.756 182.742 615.692 180.462C615.841 178.173 615.476 175.88 614.624 173.75C613.772 171.621 612.455 169.709 610.769 168.154L448.308 5.69227C446.753 4.00614 444.841 2.68898 442.711 1.83718C440.582 0.985372 438.289 0.620476 436 0.769194C433.72 0.705526 431.451 1.10769 429.331 1.95108C427.212 2.79447 425.287 4.06136 423.674 5.67425C422.061 7.28714 420.794 9.21213 419.951 11.3315C419.108 13.4508 418.706 15.7199 418.769 18V148.462C418.81 161.506 424.01 174.004 433.233 183.228C442.457 192.452 454.956 197.652 468 197.692Z" fill="#CCCCCC"/>
<path d="M591.077 271.539H418.769C399.196 271.498 380.437 263.705 366.597 249.865C352.757 236.025 344.964 217.265 344.923 197.692V25.3847C344.923 18.8563 342.33 12.5952 337.713 7.97897C333.097 3.36269 326.836 0.769287 320.308 0.769287H74.1538C54.581 0.809937 35.8216 8.60319 21.9816 22.4432C8.14152 36.2833 0.348267 55.0427 0.307617 74.6154V665.385C0.348267 684.957 8.14152 703.717 21.9816 717.557C35.8216 731.397 54.581 739.19 74.1538 739.231H541.846C561.419 739.19 580.178 731.397 594.018 717.557C607.858 703.717 615.652 684.957 615.692 665.385V296.154C615.692 292.921 615.056 289.72 613.818 286.734C612.581 283.748 610.768 281.034 608.483 278.748C606.197 276.462 603.483 274.649 600.497 273.412C597.51 272.175 594.309 271.539 591.077 271.539ZM98.7691 246.923C99.0442 240.554 101.749 234.533 106.328 230.098C110.906 225.662 117.01 223.15 123.385 223.077H224.154C227.305 223.057 230.43 223.657 233.35 224.845C236.27 226.032 238.927 227.783 241.17 229.998C243.412 232.212 245.197 234.846 246.422 237.75C247.647 240.654 248.287 243.771 248.308 246.923V271.385C248.113 277.796 245.468 283.889 240.918 288.411C236.368 292.932 230.259 295.538 223.846 295.692H123.385C120.175 295.755 116.986 295.169 114.009 293.97C111.031 292.771 108.326 290.982 106.057 288.713C103.787 286.443 101.999 283.738 100.799 280.761C99.6 277.783 99.0141 274.594 99.0768 271.385L98.7691 246.923ZM468 566.462C468 572.99 465.406 579.251 460.79 583.867C456.174 588.484 449.913 591.077 443.385 591.077H123.385C116.856 591.077 110.595 588.484 105.979 583.867C101.363 579.251 98.7691 572.99 98.7691 566.462V542.308C98.7691 535.779 101.363 529.518 105.979 524.902C110.595 520.286 116.856 517.692 123.385 517.692H443.385C449.913 517.692 456.174 520.286 460.79 524.902C465.406 529.518 468 535.779 468 542.308V566.462ZM517.231 418.769C517.292 422.04 516.701 425.291 515.491 428.331C514.282 431.371 512.478 434.139 510.186 436.474C507.894 438.809 505.16 440.664 502.143 441.929C499.126 443.195 495.887 443.847 492.615 443.846H123.385C116.856 443.846 110.595 441.253 105.979 436.637C101.363 432.02 98.7691 425.759 98.7691 419.231V394.615C98.7691 388.087 101.363 381.826 105.979 377.21C110.595 372.593 116.856 370 123.385 370H492.615C499.144 370 505.405 372.593 510.021 377.21C514.637 381.826 517.231 388.087 517.231 394.615V418.769Z" fill="#CCCCCC"/>
</svg>
