<svg width="800" height="800" viewBox="0 0 800 800" fill="none" xmlns="http://www.w3.org/2000/svg">
<path d="M199.653 164.298C209.417 174.061 209.417 189.89 199.653 199.653C89.0049 310.302 89.0049 489.699 199.653 600.347C209.417 610.11 209.417 625.939 199.653 635.702C189.89 645.466 174.061 645.466 164.298 635.702C34.1233 505.528 34.1233 294.473 164.298 164.298C174.061 154.535 189.89 154.535 199.653 164.298ZM635.703 164.298C765.877 294.473 765.877 505.528 635.703 635.702C625.939 645.466 610.11 645.466 600.347 635.702C590.584 625.939 590.584 610.11 600.347 600.347C710.996 489.699 710.996 310.302 600.347 199.653C590.584 189.89 590.584 174.061 600.347 164.298C610.11 154.535 625.939 154.535 635.703 164.298ZM293.934 258.579C303.697 268.342 303.697 284.171 293.934 293.934C235.356 352.513 235.356 447.488 293.934 506.066C303.697 515.829 303.697 531.658 293.934 541.422C284.171 551.185 268.342 551.185 258.579 541.422C180.474 463.317 180.474 336.684 258.579 258.579C268.342 248.816 284.171 248.816 293.934 258.579ZM541.422 258.579C619.527 336.684 619.527 463.317 541.422 541.422C531.659 551.185 515.829 551.185 506.066 541.422C496.303 531.658 496.303 515.829 506.066 506.066C564.645 447.488 564.645 352.513 506.066 293.934C496.303 284.171 496.303 268.342 506.066 258.579C515.829 248.816 531.659 248.816 541.422 258.579ZM400 350C427.615 350 450 372.386 450 400C450 427.614 427.615 450 400 450C372.386 450 350 427.614 350 400C350 372.386 372.386 350 400 350Z" fill="white"/>
</svg>
