<svg width="1000" height="1000" viewBox="0 0 1000 1000" fill="none" xmlns="http://www.w3.org/2000/svg">
<path d="M500 123C460.427 123 428.231 155.195 428.231 194.769C428.231 234.342 460.428 266.537 500 266.537C539.572 266.537 571.769 234.342 571.769 194.769C571.769 155.195 539.574 123 500 123Z" fill="black"/>
<path d="M616.111 384.809L585.656 293.445C582.105 282.793 572.137 275.607 560.909 275.607H439.089C427.859 275.607 417.894 282.792 414.342 293.445L383.887 384.809C378.259 401.693 390.855 419.143 408.634 419.143H591.364C609.164 419.143 621.733 401.676 616.111 384.809Z" fill="black"/>
<path d="M217.467 351.806C177.894 351.806 145.698 384.001 145.698 423.575C145.698 463.148 177.895 495.344 217.467 495.344C257.039 495.344 289.236 463.148 289.236 423.575C289.236 384.001 257.04 351.806 217.467 351.806Z" fill="black"/>
<path d="M333.581 613.616L303.125 522.251C299.573 511.6 289.606 504.416 278.378 504.416H156.556C145.326 504.416 135.361 511.6 131.809 522.253L101.356 613.616C95.7279 630.501 108.325 647.95 126.103 647.95H308.833C326.631 647.95 339.201 630.483 333.581 613.616Z" fill="black"/>
<path d="M500.001 580.615C460.428 580.615 428.232 612.811 428.232 652.384C428.232 691.956 460.428 724.153 500.001 724.153C539.575 724.153 571.77 691.957 571.77 652.384C571.77 612.811 539.575 580.615 500.001 580.615Z" fill="black"/>
<path d="M616.113 842.422L585.658 751.058C582.106 740.406 572.139 733.22 560.911 733.22H439.091C427.861 733.22 417.895 740.405 414.344 751.058L383.889 842.422C378.261 859.308 390.858 876.756 408.636 876.756H591.366C609.166 876.755 621.735 859.289 616.113 842.422Z" fill="black"/>
<path d="M396.412 225.144C390.143 212.172 374.543 206.739 361.573 213.009C321.162 232.542 284.529 261.123 255.637 295.661C246.393 306.712 247.859 323.164 258.909 332.409C269.958 341.653 286.409 340.191 295.656 329.137C319.836 300.233 350.481 276.319 384.279 259.983C397.248 253.712 402.683 238.116 396.412 225.144Z" fill="black"/>
<path d="M782.531 351.808C742.958 351.808 710.763 384.005 710.763 423.576C710.763 463.148 742.958 495.345 782.531 495.345C822.105 495.345 854.3 463.15 854.3 423.576C854.3 384.003 822.105 351.808 782.531 351.808Z" fill="black"/>
<path d="M898.645 613.616L868.19 522.252C864.639 511.6 854.671 504.414 843.443 504.414H721.625C710.395 504.414 700.429 511.598 696.878 522.25L666.421 613.614C660.793 630.5 673.39 647.95 691.168 647.95H873.896C891.695 647.95 904.265 630.483 898.645 613.616Z" fill="black"/>
<path d="M744.36 295.662C715.467 261.125 678.836 232.545 638.424 213.011C625.45 206.743 609.855 212.175 603.585 225.145C597.317 238.115 602.75 253.712 615.719 259.983C649.517 276.318 680.163 300.233 704.342 329.137C713.589 340.189 730.039 341.65 741.089 332.409C752.139 323.164 753.605 306.712 744.36 295.662Z" fill="black"/>
<path d="M741.089 667.35C730.041 658.106 713.588 659.568 704.342 670.622C680.163 699.526 649.517 723.44 615.719 739.776C602.749 746.045 597.314 761.643 603.586 774.615C609.857 787.59 625.457 793.017 638.425 786.75C678.836 767.217 715.469 738.636 744.361 704.098C753.605 693.047 752.139 676.595 741.089 667.35Z" fill="black"/>
<path d="M384.279 739.775C350.481 723.437 319.835 699.525 295.656 670.62C286.409 659.568 269.959 658.106 258.909 667.348C247.859 676.593 246.395 693.045 255.64 704.095C284.532 738.632 321.164 767.212 361.576 786.747C374.554 793.02 390.146 787.578 396.414 774.614C402.681 761.642 397.248 746.045 384.279 739.775Z" fill="black"/>
</svg>
