<svg width="800" height="800" viewBox="0 0 800 800" fill="none" xmlns="http://www.w3.org/2000/svg">
<path fill-rule="evenodd" clip-rule="evenodd" d="M378.113 25.8122C232.65 34.8622 156.638 117.237 150 266.2H296.738C298.575 214.6 327.375 176.025 381 170.337C433.637 164.75 483.575 177.287 498.7 213.275C515.037 252.15 478.363 297.325 460.925 316.287C428.65 351.45 376.225 377.1 349.05 415.037C322.412 452.212 317.675 501.125 315.625 560.987H444.95C446.763 522.712 449.313 486.05 466.725 462.262C495.05 423.612 537.35 405.5 572.8 374.975C606.663 345.8 642.288 310.637 648.338 256.212C666.5 93.3246 533.538 16.1122 378.113 25.8122Z" fill="white"/>
<path d="M381.437 775C426.531 775 463.087 738.998 463.087 694.587C463.087 650.177 426.531 614.175 381.437 614.175C336.343 614.175 299.787 650.177 299.787 694.587C299.787 738.998 336.343 775 381.437 775Z" fill="white"/>
</svg>
