<svg width="668" height="668" viewBox="0 0 668 668" fill="none" xmlns="http://www.w3.org/2000/svg">
<path fill-rule="evenodd" clip-rule="evenodd" d="M11.8459 196.498C-6.16944 234.076 0.154556 278.027 12.8026 365.93L22.0949 430.507C38.3419 543.423 46.4655 599.88 85.6345 633.607C124.803 667.333 182.246 667.333 297.13 667.333H370.87C485.754 667.333 543.197 667.333 582.367 633.607C621.534 599.88 629.657 543.423 645.907 430.507L655.197 365.93C667.847 278.027 674.17 234.076 656.154 196.498C638.14 158.92 599.794 136.078 523.104 90.3936L476.94 62.8956C407.3 21.4096 372.477 0.666626 334 0.666626C295.524 0.666626 260.702 21.4096 191.059 62.8956L144.897 90.3936C68.2066 136.078 29.8612 158.92 11.8459 196.498ZM209.004 533.993C209.004 520.187 220.197 508.993 234.004 508.993H434.004C447.81 508.993 459.004 520.187 459.004 533.993C459.004 547.8 447.81 558.993 434.004 558.993H234.004C220.197 558.993 209.004 547.8 209.004 533.993Z" fill="#CCCCCC"/>
</svg>
