<svg width="629" height="686" viewBox="0 0 629 686" fill="none" xmlns="http://www.w3.org/2000/svg">
<path d="M192.857 121.429C192.857 54.3654 247.223 0 314.286 0C381.349 0 435.714 54.3654 435.714 121.429C435.714 181.18 392.557 230.85 335.714 240.973V328.636H464.286C499.789 328.636 528.571 357.419 528.571 392.922V444.807C585.414 454.927 628.571 504.599 628.571 564.35C628.571 631.413 574.206 685.779 507.143 685.779C440.08 685.779 385.714 631.413 385.714 564.35C385.714 504.599 428.871 454.927 485.714 444.807V392.922C485.714 381.087 476.12 371.493 464.286 371.493H164.286C152.451 371.493 142.857 381.087 142.857 392.922V444.807C199.7 454.927 242.857 504.599 242.857 564.35C242.857 631.413 188.492 685.779 121.429 685.779C54.3654 685.779 0 631.413 0 564.35C0 504.599 43.1569 454.927 100 444.807V392.922C100 357.419 128.782 328.636 164.286 328.636H292.857V240.973C236.014 230.85 192.857 181.18 192.857 121.429Z" fill="#CCCCCC"/>
</svg>
