<svg width="471" height="426" viewBox="0 0 471 426" fill="none" xmlns="http://www.w3.org/2000/svg">
<path d="M342.4 279.4C389.675 279.4 428 241.076 428 193.8C428 146.524 389.675 108.2 342.4 108.2C295.124 108.2 256.8 146.524 256.8 193.8C256.8 241.076 295.124 279.4 342.4 279.4Z" fill="#CCCCCC"/>
<path d="M344.8 295.4H338.4C307.232 295.654 277.169 306.976 253.577 327.345C229.985 347.713 214.398 375.803 209.6 406.6C209.6 412.2 211.2 425.8 231.2 425.8H448.8C468.8 425.8 470.4 413.8 470.4 406.6C466.936 375.808 452.177 347.394 428.977 326.854C405.777 306.314 375.784 295.107 344.8 295.4Z" fill="#CCCCCC"/>
<path d="M224.8 279.4C228 276.2 225.6 273.8 225.6 273.8C209.563 250.192 200.929 222.339 200.8 193.8C200.438 164.57 209.406 135.985 226.4 112.2C226.4 111.988 226.484 111.784 226.634 111.634C226.784 111.484 226.988 111.4 227.2 111.4C229.239 108.918 230.369 105.812 230.4 102.6V16.2C230.119 12.0489 228.343 8.14041 225.401 5.1985C222.46 2.25659 218.551 0.480732 214.4 0.199951H16C11.7369 0.550765 7.75136 2.4561 4.80135 5.55362C1.85133 8.65114 0.142564 12.7248 0 17V386.6H156C166.138 344.109 190.393 306.315 224.8 279.4ZM88.8 341C88.6411 345.405 86.8201 349.586 83.7033 352.703C80.5864 355.82 76.405 357.641 72 357.8H55.2C50.795 357.641 46.6136 355.82 43.4967 352.703C40.3799 349.586 38.5589 345.405 38.4 341V324.2C38.5589 319.795 40.3799 315.614 43.4967 312.497C46.6136 309.38 50.795 307.559 55.2 307.4H72C76.405 307.559 80.5864 309.38 83.7033 312.497C86.8201 315.614 88.6411 319.795 88.8 324.2V341ZM88.8 257C88.6411 261.405 86.8201 265.586 83.7033 268.703C80.5864 271.82 76.405 273.641 72 273.8H55.2C50.795 273.641 46.6136 271.82 43.4967 268.703C40.3799 265.586 38.5589 261.405 38.4 257V240.2C38.5589 235.795 40.3799 231.614 43.4967 228.497C46.6136 225.38 50.795 223.559 55.2 223.4H72C76.405 223.559 80.5864 225.38 83.7033 228.497C86.8201 231.614 88.6411 235.795 88.8 240.2V257ZM88.8 173C88.6411 177.405 86.8201 181.586 83.7033 184.703C80.5864 187.82 76.405 189.641 72 189.8H55.2C50.795 189.641 46.6136 187.82 43.4967 184.703C40.3799 181.586 38.5589 177.405 38.4 173V156.2C38.5589 151.795 40.3799 147.614 43.4967 144.497C46.6136 141.38 50.795 139.559 55.2 139.4H72C76.405 139.559 80.5864 141.38 83.7033 144.497C86.8201 147.614 88.6411 151.795 88.8 156.2V173ZM88.8 89C88.6411 93.405 86.8201 97.5864 83.7033 100.703C80.5864 103.82 76.405 105.641 72 105.8H55.2C50.795 105.641 46.6136 103.82 43.4967 100.703C40.3799 97.5864 38.5589 93.405 38.4 89V72.2C38.5589 67.795 40.3799 63.6135 43.4967 60.4967C46.6136 57.3798 50.795 55.5588 55.2 55.3999H72C76.405 55.5588 80.5864 57.3798 83.7033 60.4967C86.8201 63.6135 88.6411 67.795 88.8 72.2V89ZM184 257C183.841 261.405 182.02 265.586 178.903 268.703C175.786 271.82 171.605 273.641 167.2 273.8H150.4C145.995 273.641 141.814 271.82 138.697 268.703C135.58 265.586 133.759 261.405 133.6 257V240.2C133.759 235.795 135.58 231.614 138.697 228.497C141.814 225.38 145.995 223.559 150.4 223.4H167.2C171.605 223.559 175.786 225.38 178.903 228.497C182.02 231.614 183.841 235.795 184 240.2V257ZM184 173C183.841 177.405 182.02 181.586 178.903 184.703C175.786 187.82 171.605 189.641 167.2 189.8H150.4C145.995 189.641 141.814 187.82 138.697 184.703C135.58 181.586 133.759 177.405 133.6 173V156.2C133.759 151.795 135.58 147.614 138.697 144.497C141.814 141.38 145.995 139.559 150.4 139.4H167.2C171.605 139.559 175.786 141.38 178.903 144.497C182.02 147.614 183.841 151.795 184 156.2V173ZM184 89C183.841 93.405 182.02 97.5864 178.903 100.703C175.786 103.82 171.605 105.641 167.2 105.8H150.4C145.995 105.641 141.814 103.82 138.697 100.703C135.58 97.5864 133.759 93.405 133.6 89V72.2C133.759 67.795 135.58 63.6135 138.697 60.4967C141.814 57.3798 145.995 55.5588 150.4 55.3999H167.2C171.605 55.5588 175.786 57.3798 178.903 60.4967C182.02 63.6135 183.841 67.795 184 72.2V89Z" fill="#CCCCCC"/>
</svg>
