<svg width="694" height="754" viewBox="0 0 694 754" fill="none" xmlns="http://www.w3.org/2000/svg">
<path fill-rule="evenodd" clip-rule="evenodd" d="M422 20.3013L618.41 133.699C664.82 160.494 693.41 210.013 693.41 263.603V490.397C693.41 543.987 664.82 593.506 618.41 620.301L422 733.699C375.59 760.494 318.41 760.494 272 733.699L75.5898 620.301C29.1797 593.506 0.589844 543.987 0.589844 490.397V263.603C0.589844 210.013 29.1797 160.494 75.5898 133.699L272 20.3013C318.41 -6.49365 375.59 -6.49365 422 20.3013ZM522.508 265.934C516.026 253.743 500.888 249.115 488.697 255.598L346.712 331.066L204.729 255.598C192.538 249.115 177.4 253.743 170.918 265.934C164.436 278.125 169.064 293.263 181.255 299.745L321.712 374.416L321.713 543.639C321.713 557.446 332.906 568.639 346.713 568.639C360.52 568.639 371.713 557.446 371.713 543.639L371.712 374.416L512.171 299.745C524.362 293.263 528.99 278.125 522.508 265.934Z" fill="#CCCCCC"/>
</svg>
