<svg width="120" height="120" viewBox="0 0 120 120" fill="none" xmlns="http://www.w3.org/2000/svg">
<path fill-rule="evenodd" clip-rule="evenodd" d="M37.1769 6.25C34.3271 6.2499 31.9074 6.24985 29.9077 6.4566C27.7787 6.6767 25.811 7.1547 23.9522 8.30355C22.0933 9.4524 20.7858 10.9986 19.6368 12.8044C18.5576 14.5005 17.4756 16.6647 16.2012 19.2137L16.1187 19.3787C16.0701 19.4759 16.0257 19.5752 15.9857 19.6763L8.96763 37.417C8.13258 39.528 7.20718 42.1615 6.93653 44.8564C6.65973 47.6129 7.03963 50.7705 9.19943 53.5095C11.711 56.6945 15.6166 58.75 20.0002 58.75C23.9403 58.75 27.4933 57.093 30.0002 54.4375C32.5071 57.093 36.0601 58.75 40.0002 58.75C43.9403 58.75 47.4933 57.093 50 54.4375C52.507 57.093 56.06 58.75 60 58.75C63.9405 58.75 67.4935 57.093 70 54.4375C72.507 57.093 76.06 58.75 80 58.75C83.9405 58.75 87.4935 57.093 90 54.4375C92.507 57.093 96.06 58.75 100 58.75C104.384 58.75 108.29 56.6945 110.801 53.5095C112.961 50.7705 113.341 47.6129 113.065 44.8564C112.794 42.1615 111.868 39.528 111.033 37.417L104.015 19.6763C103.975 19.5752 103.931 19.4759 103.882 19.3787L103.8 19.214C102.526 16.6649 101.444 14.5005 100.364 12.8044C99.215 10.9986 97.9075 9.4524 96.0485 8.30355C94.19 7.1547 92.222 6.6767 90.093 6.4566C88.0935 6.24985 85.674 6.2499 82.824 6.25H37.1769ZM40.0002 51.25C36.5484 51.25 33.7502 48.4518 33.7502 45C33.7502 42.929 32.0713 41.25 30.0002 41.25C27.9291 41.25 26.2502 42.929 26.2502 45C26.2502 48.4518 23.452 51.25 20.0002 51.25C18.0104 51.25 16.2392 50.3245 15.0886 48.8654C14.519 48.1431 14.2435 47.1548 14.399 45.6058C14.5607 43.9952 15.1554 42.1638 15.9418 40.1759L22.8998 22.587C24.2384 19.9102 25.1329 18.1375 25.9645 16.8306C26.7643 15.5735 27.3375 15.0281 27.8952 14.6835C28.4528 14.3388 29.197 14.0701 30.6791 13.9168C32.2476 13.7547 34.2773 13.75 37.3613 13.75H82.6395C85.7235 13.75 87.753 13.7547 89.3215 13.9168C90.804 14.0701 91.548 14.3388 92.1055 14.6835C92.6635 15.0281 93.2365 15.5735 94.0365 16.8306C94.868 18.1375 95.7625 19.9102 97.101 22.587L104.059 40.1759C104.846 42.1638 105.44 43.9952 105.602 45.6057C105.758 47.1547 105.482 48.143 104.912 48.8653C103.762 50.3245 101.99 51.25 100 51.25C96.5485 51.25 93.75 48.4518 93.75 45C93.75 42.929 92.0715 41.25 90 41.25C87.929 41.25 86.25 42.929 86.25 45C86.25 48.4518 83.452 51.25 80 51.25C76.5485 51.25 73.75 48.4518 73.75 45C73.75 42.929 72.0715 41.25 70 41.25C67.929 41.25 66.25 42.929 66.25 45C66.25 48.4518 63.452 51.25 60 51.25C56.5485 51.25 53.75 48.4518 53.75 45C53.75 42.929 52.0715 41.25 50 41.25C47.9291 41.25 46.2502 42.929 46.2502 45C46.2502 48.4518 43.452 51.25 40.0002 51.25Z" fill="#FF8800"/>
<path d="M98.7509 75C98.7509 72.929 97.0719 71.25 95.0009 71.25C92.9299 71.25 91.2509 72.929 91.2509 75V106.25H28.751V75C28.751 72.929 27.0721 71.25 25.001 71.25C22.9299 71.25 21.251 72.929 21.251 75V106.25H15.001C12.9299 106.25 11.251 107.929 11.251 110C11.251 112.071 12.9299 113.75 15.001 113.75H105.001C107.072 113.75 108.751 112.071 108.751 110C108.751 107.929 107.072 106.25 105.001 106.25H98.7509V75Z" fill="#FF8800"/>
</svg>
