<svg width="800" height="800" viewBox="0 0 800 800" fill="none" xmlns="http://www.w3.org/2000/svg">
<path d="M666.666 333.333H133.333V699.999C133.333 708.84 136.845 717.318 143.096 723.57C149.347 729.821 157.825 733.333 166.666 733.333H633.333C642.173 733.333 650.652 729.821 656.903 723.57C663.154 717.318 666.666 708.84 666.666 699.999V333.333ZM299.999 599.999C299.999 608.84 296.487 617.318 290.236 623.57C283.985 629.821 275.507 633.333 266.666 633.333C257.825 633.333 249.347 629.821 243.096 623.57C236.845 617.318 233.333 608.84 233.333 599.999V466.666C233.333 457.825 236.845 449.347 243.096 443.096C249.347 436.845 257.825 433.333 266.666 433.333C275.507 433.333 283.985 436.845 290.236 443.096C296.487 449.347 299.999 457.825 299.999 466.666V599.999ZM433.333 599.999C433.333 608.84 429.821 617.318 423.57 623.57C417.318 629.821 408.84 633.333 399.999 633.333C391.159 633.333 382.68 629.821 376.429 623.57C370.178 617.318 366.666 608.84 366.666 599.999V466.666C366.666 457.825 370.178 449.347 376.429 443.096C382.68 436.845 391.159 433.333 399.999 433.333C408.84 433.333 417.318 436.845 423.57 443.096C429.821 449.347 433.333 457.825 433.333 466.666V599.999ZM566.666 599.999C566.666 608.84 563.154 617.318 556.903 623.57C550.652 629.821 542.173 633.333 533.333 633.333C524.492 633.333 516.014 629.821 509.762 623.57C503.511 617.318 499.999 608.84 499.999 599.999V466.666C499.999 457.825 503.511 449.347 509.762 443.096C516.014 436.845 524.492 433.333 533.333 433.333C542.173 433.333 550.652 436.845 556.903 443.096C563.154 449.347 566.666 457.825 566.666 466.666V599.999ZM733.333 166.666V266.666H66.666V166.666C66.666 157.825 70.1779 149.347 76.4291 143.096C82.6803 136.845 91.1588 133.333 99.9993 133.333H266.666V99.9993C266.666 91.1588 270.178 82.6803 276.429 76.4291C282.68 70.1779 291.159 66.666 299.999 66.666H499.999C508.84 66.666 517.318 70.1779 523.57 76.4291C529.821 82.6803 533.333 91.1588 533.333 99.9993V133.333H699.999C708.84 133.333 717.318 136.845 723.57 143.096C729.821 149.347 733.333 157.825 733.333 166.666Z" fill="white"/>
</svg>
