<svg width="113" height="113" viewBox="0 0 113 113" fill="none" xmlns="http://www.w3.org/2000/svg">
<path d="M14.125 30.0676C14.125 27.7867 15.7512 25.9376 17.7571 25.9376L30.3013 25.9353C32.7936 25.8635 34.9924 24.0615 35.8405 21.3956C35.8628 21.3255 35.8884 21.239 35.9804 20.9253L36.5209 19.0811C36.8517 17.9504 37.1398 16.9653 37.5431 16.0848C39.1361 12.6062 42.0835 10.1907 45.4894 9.57223C46.3515 9.41568 47.2646 9.41634 48.3127 9.4171H64.6883C65.7363 9.41634 66.6493 9.41568 67.5114 9.57223C70.9174 10.1907 73.8648 12.6062 75.4576 16.0848C75.8611 16.9653 76.1493 17.9504 76.4798 19.0811L77.0203 20.9253C77.1121 21.239 77.138 21.3255 77.1602 21.3956C78.0086 24.0615 80.6434 25.8657 83.1355 25.9376H95.243C97.2487 25.9376 98.875 27.7867 98.875 30.0676C98.875 32.3486 97.2487 34.1977 95.243 34.1977H17.7571C15.7512 34.1977 14.125 32.3486 14.125 30.0676Z" fill="#B32A25"/>
<path fill-rule="evenodd" clip-rule="evenodd" d="M54.5963 103.584H58.4044C71.5062 103.584 78.0574 103.584 82.3166 99.4129C86.5762 95.2418 87.0117 88.3996 87.8832 74.7148L89.139 54.9968C89.6121 47.5718 89.8485 43.8594 87.7114 41.5069C85.5748 39.1543 81.9663 39.1543 74.7498 39.1543H38.251C31.0342 39.1543 27.4258 39.1543 25.289 41.5069C23.1522 43.8594 23.3887 47.5718 23.8616 54.9968L25.1174 74.7148C25.9889 88.3996 26.4247 95.2418 30.684 99.4129C34.9434 103.584 41.4943 103.584 54.5963 103.584ZM48.2433 57.3882C48.0493 55.3457 46.3187 53.855 44.3781 54.0594C42.4375 54.2637 41.0217 56.0854 41.2158 58.1278L43.5699 82.9087C43.764 84.9512 45.4945 86.4419 47.4349 86.2375C49.3757 86.0332 50.7915 84.2115 50.5975 82.1691L48.2433 57.3882ZM68.6224 54.0594C70.5632 54.2637 71.979 56.0854 71.785 58.1278L69.4308 82.9087C69.2368 84.9512 67.5061 86.4419 65.5657 86.2375C63.625 86.0332 62.2092 84.2115 62.4032 82.1691L64.7573 57.3882C64.9513 55.3457 66.6821 53.855 68.6224 54.0594Z" fill="#B32A25"/>
</svg>
