<svg width="120" height="120" viewBox="0 0 120 120" fill="none" xmlns="http://www.w3.org/2000/svg">
<path d="M11.25 41.25H108.75" stroke="#F2453F" stroke-width="7" stroke-miterlimit="10" stroke-linecap="round" stroke-linejoin="round"/>
<circle cx="26.25" cy="30" r="3.75" fill="#F2453F"/>
<circle cx="37.5" cy="30" r="3.75" fill="#F2453F"/>
<circle cx="48.75" cy="30" r="3.75" fill="#F2453F"/>
<path d="M33 101.25H11.25V18.75H108.75V101.25H87C88.125 100.875 89.25 100.875 90.375 100.875C90.75 98.625 91.125 96 91.125 93.75C91.125 91.125 90.75 88.875 90.375 86.625C86.625 87 82.875 85.5 81 81.75C79.125 78.375 79.5 74.25 81.75 71.25C78.375 67.875 73.875 65.25 69 63.75C67.5 67.125 64.125 69.75 60 69.75C55.875 69.75 52.5 67.125 51 63.75C46.125 65.25 42 67.875 38.25 71.25C40.5 74.25 40.875 78.375 39 81.75C37.125 85.125 33 87 29.625 86.625C29.25 88.875 28.875 91.5 28.875 93.75C28.875 96.375 29.25 98.625 29.625 100.875C30.75 100.875 31.875 100.875 33 101.25Z" stroke="#F2453F" stroke-width="7" stroke-miterlimit="10" stroke-linecap="round" stroke-linejoin="round"/>
<path d="M60 105C66.2132 105 71.25 99.9632 71.25 93.75C71.25 87.5368 66.2132 82.5 60 82.5C53.7868 82.5 48.75 87.5368 48.75 93.75C48.75 99.9632 53.7868 105 60 105Z" stroke="#F2453F" stroke-width="7" stroke-miterlimit="10" stroke-linecap="round" stroke-linejoin="round"/>
</svg>
